<?xml version="1.0" encoding="UTF-8"?>
<svg id="Livello_2" data-name="Livello 2" xmlns="http://www.w3.org/2000/svg" viewBox="0 0 707.64 103.15">
  <defs>
    <style>
      .cls-1 {
        fill: #a5003c;
      }

      .cls-1, .cls-2, .cls-3 {
        stroke-width: 0px;
      }

      .cls-3 {
        fill: #ff0050;
      }
    </style>
  </defs>
  <g id="Livello_1-2" data-name="Livello 1">
    <g id="logo-black-3colors">
      <g>
        <path class="cls-2" d="m0,83.21c0-14.73,12.38-22.31,43.41-24.71,1.34-.1,2.28-1.39,1.96-2.69-1.41-5.65-5.99-9.46-15.01-9.46-6.59,0-13.11,2.53-19.65,5.89-1.03.53-2.31.13-2.87-.89l-4.26-7.69c-.58-1.06-.19-2.38.86-2.96,8.27-4.56,18.46-8.22,29.18-8.22,18.79,0,29.49,10.2,29.49,29.63v37.23c0,1.2-.97,2.17-2.17,2.17h-10.18c-1.07,0-1.97-.77-2.14-1.83l-1-6.26h-.48c-6.98,5.34-15.81,9.72-24.7,9.72C9.12,103.14,0,94.76,0,83.2h0Zm45.78-2.21v-9.68c0-1.27-1.08-2.26-2.35-2.16-20.76,1.56-26.72,6.19-26.72,12.69,0,5.37,4.69,7.77,11,7.77s11.78-2.73,17.22-6.9c.53-.41.84-1.05.84-1.72h.01Z"/>
        <path class="cls-2" d="m246.07,0c-6.95,0-11.98,4.62-11.98,11.3s5.03,11.17,11.98,11.17,11.97-4.43,11.97-11.17S253.01,0,246.07,0Zm-31.82,37.5c2.1,2.55,3.82,5.62,5.06,8.91.32.84,1.15,1.38,2.05,1.38h14.87c1.2,0,2.17.97,2.17,2.17v49.4c0,1.2.97,2.17,2.17,2.17h12.98c1.2,0,2.17-.97,2.17-2.17v-63.25c0-1.2-.97-2.17-2.17-2.17h-37.66c-1.85,0-2.82,2.14-1.65,3.57h0Z"/>
        <path class="cls-2" d="m498.3,0c-6.95,0-11.98,4.62-11.98,11.3s5.03,11.17,11.98,11.17,11.97-4.43,11.97-11.17S505.24,0,498.3,0Zm-32.14,37.36c1.82,2.48,3.07,5.49,3.89,8.81.24.96,1.11,1.62,2.09,1.62h16.32c1.2,0,2.17.97,2.17,2.17v49.4c0,1.2.97,2.17,2.17,2.17h12.98c1.2,0,2.17-.97,2.17-2.17v-63.25c0-1.2-.97-2.17-2.17-2.17h-37.87c-1.77,0-2.8,2-1.76,3.42h.01Z"/>
        <path class="cls-2" d="m263.35,67.63c0-22.49,17.89-35.41,38.53-35.41,9.8,0,17.87,3.31,23.47,7.99.89.74,1.04,2.05.34,2.97l-5.62,7.5c-.69.93-2,1.15-2.95.49-4.68-3.24-9.27-4.89-14.36-4.89-12.83,0-21.68,8.44-21.68,21.34s8.71,21.2,21.14,21.2c6.6,0,12.19-2.57,16.9-5.78,1-.68,2.37-.4,3.03.61l4.85,7.48c.62.96.38,2.23-.53,2.93-7.65,5.9-16.98,8.83-25.81,8.83-21.19,0-37.31-12.92-37.31-35.27h0Z"/>
        <path class="cls-2" d="m329.58,67.63c0-22.49,17.89-35.41,38.53-35.41,9.8,0,17.87,3.31,23.47,7.99.89.74,1.04,2.05.34,2.97l-5.62,7.5c-.69.93-2,1.15-2.95.49-4.68-3.24-9.27-4.89-14.36-4.89-12.83,0-21.68,8.44-21.68,21.34s8.71,21.2,21.14,21.2c6.6,0,12.19-2.57,16.9-5.78,1-.68,2.37-.4,3.03.61l4.85,7.48c.62.96.38,2.23-.53,2.93-7.65,5.9-16.98,8.83-25.81,8.83-21.19,0-37.31-12.92-37.31-35.27h0Z"/>
        <path class="cls-2" d="m405.61,4.89h12.99c1.2,0,2.17.97,2.17,2.17v31.33c0,1.85,2.18,2.86,3.57,1.64,4.93-4.3,10.97-7.54,19.09-7.54,15.39,0,22.3,10.1,22.3,27.34v39.53c0,1.2-.97,2.17-2.17,2.17h-12.99c-1.2,0-2.17-.97-2.17-2.17v-37.28c0-10.16-3.17-14.76-11.62-14.76-5.94,0-10.05,2.73-15.36,7.96-.41.41-.65.97-.65,1.56v42.54c0,1.2-.97,2.17-2.17,2.17h-12.99c-1.2,0-2.17-.97-2.17-2.17V7.05c0-1.2.97-2.17,2.17-2.17h0Z"/>
        <path class="cls-2" d="m583.59,64.34c0-18.53-11.08-32.11-31.43-32.11-18.04,0-34.85,13.26-34.85,35.27s16.26,35.4,37.03,35.4c8.82,0,17.61-2.67,24.7-6.81,1.02-.6,1.38-1.9.81-2.93l-3.82-6.93c-.56-1.02-1.83-1.41-2.86-.89-5.34,2.7-10.49,4.25-16.52,4.25-11.04,0-18.9-4.56-21.52-14.24-.37-1.36.7-2.68,2.11-2.68h43.73c1.08,0,2-.8,2.15-1.87.24-1.76.47-4.09.47-6.44v-.02Zm-30.89-18.86c8.12,0,13.4,4.26,15.08,12.57.27,1.36-.74,2.63-2.12,2.63h-27.97c-1.49,0-2.53-1.47-2.06-2.87,2.74-8.12,9.11-12.33,17.08-12.33h-.01Z"/>
        <path class="cls-2" d="m707.64,64.34c0-18.53-11.08-32.11-31.43-32.11-18.04,0-34.85,13.26-34.85,35.27s16.26,35.4,37.03,35.4c8.82,0,17.61-2.67,24.7-6.81,1.02-.6,1.38-1.9.81-2.93l-3.82-6.93c-.56-1.02-1.83-1.41-2.86-.89-5.34,2.7-10.49,4.25-16.52,4.25-11.04,0-18.9-4.56-21.52-14.24-.37-1.36.7-2.68,2.11-2.68h43.73c1.08,0,2-.8,2.15-1.87.24-1.76.47-4.09.47-6.44v-.02Zm-30.89-18.86c8.12,0,13.4,4.26,15.08,12.57.27,1.36-.74,2.63-2.12,2.63h-27.97c-1.49,0-2.53-1.47-2.06-2.87,2.74-8.12,9.11-12.33,17.08-12.33h-.01Z"/>
        <path class="cls-2" d="m117.04,99.04c.23,1.3-.83,2.48-2.15,2.48h-17.63c-16.17,0-24.7-9.76-24.7-26.49V20.72c0-1.2-.97-2.17-2.17-2.17h-17.7c-1.2,0-2.17-.97-2.17-2.17V7.06c0-1.2.97-2.17,2.17-2.17h41.72c1.55,0,2.6,1.58,2,3-3.15,7.45-10.85,27.5-10.85,45.47,0,37.25,28.99,31.82,31.47,45.68h0Z"/>
        <path class="cls-2" d="m189.81,32.49c-5.59,0-11.31,2.06-16.11,5.59-1.42,1.04-3.42,0-3.42-1.76V7.06c0-1.2-.97-2.17-2.17-2.17h-19.67c-1.55,0-2.6,1.57-2,3,3.15,7.46,10.85,27.55,10.85,45.47,0,37.25-29,31.82-31.47,45.68-.23,1.3.83,2.48,2.15,2.48h36.81c1.03,0,1.92-.73,2.12-1.74l1.15-5.65h.47c5.76,5.81,12.81,9.02,19.17,9.02,15.32,0,29.55-13.34,29.55-36.5,0-20.71-10.18-34.17-27.42-34.17h0Zm-5.86,56.4c-3.76,0-8.56-1.29-12.92-4.85-.49-.4-.77-1.02-.77-1.66v-27.29c0-.58.23-1.14.64-1.55,4.81-4.76,9.48-6.79,14.08-6.79,10.03,0,14.5,7.22,14.5,20.18,0,14.79-6.87,21.95-15.53,21.95h0Z"/>
        <path class="cls-3" d="m147.34,39.33c-12.28,10.49-25.92,9.9-25.92,9.9,0,0-13.64.59-25.92-9.9-2.26,10.97-4.39,35.48,19.04,43.46,4.45,1.52,9.3,1.52,13.75,0,23.44-7.98,21.3-32.49,19.04-43.46h0Z"/>
        <path class="cls-1" d="m121.42,42.79c-14.5,0-25.92-3.45-25.92-3.45,12.28,10.49,25.92,9.9,25.92,9.9,0,0,13.64.59,25.92-9.9,0,0-11.42,3.45-25.92,3.45Z"/>
        <path class="cls-2" d="m646.06,33.44c-2.41-.66-5.03-.98-8.41-.98-10.82,0-20.57,5.3-27.32,15.43v-.02c-.6.79-1.37.51-1.44-.31h0l-1.09-11.65c-.1-1.11-1.04-1.97-2.16-1.97h-10.12c-1.2,0-2.17.97-2.17,2.17v63.25c0,1.2.97,2.17,2.17,2.17h12.98c1.2,0,2.17-.97,2.17-2.17v-22.71c0-5.47,1.64-10.84,4.84-15.28,5.67-7.88,13.53-14.08,22.67-13.51.89.06,1.7-.47,2.08-1.28,1.72-3.65,4.03-6.84,6.76-9.52,1.19-1.16.63-3.18-.98-3.62h.02Z"/>
      </g>
    </g>
  </g>
</svg>