<?xml version="1.0" encoding="UTF-8"?>
<svg id="Livello_2" data-name="Livello 2" xmlns="http://www.w3.org/2000/svg" viewBox="0 0 707.7 103.3">
  <defs>
    <style>
      .cls-1 {
        fill: #a5003c;
      }

      .cls-1, .cls-2, .cls-3 {
        stroke-width: 0px;
      }

      .cls-2 {
        fill: #ff0050;
      }

      .cls-3 {
        fill: #fff;
      }
    </style>
  </defs>
  <g id="Livello_2-2" data-name="Livello 2">
    <g id="logo-white-3colors">
      <g>
        <path class="cls-2" d="m147.4,39.4c-12.3,10.5-25.9,9.9-25.9,9.9,0,0-13.6.6-25.9-9.9-2.3,11-4.4,35.5,19,43.5,4.4,1.5,9.3,1.5,13.8,0,23.4-8.1,21.2-32.6,19-43.5h0Z"/>
        <path class="cls-1" d="m121.4,42.8c-14.5,0-25.9-3.4-25.9-3.4,12.3,10.5,25.9,9.9,25.9,9.9,0,0,13.6.6,25.9-9.9.1,0-11.4,3.4-25.9,3.4Z"/>
        <g>
          <path class="cls-3" d="m0,83.2c0-14.7,12.4-22.3,43.4-24.7,1.3-.1,2.3-1.4,2-2.7-1.4-5.7-6-9.5-15-9.5-6.6,0-13.1,2.5-19.7,5.9-1,.5-2.3.1-2.9-.9l-4.3-7.7c-.6-1.1-.2-2.4.9-3,8.3-4.6,18.5-8.2,29.2-8.2,18.8,0,29.5,10.2,29.5,29.6v37.2c0,1.2-1,2.2-2.2,2.2h-10.1c-1.1,0-2-.8-2.1-1.8l-1-6.3h-.5c-7,5.3-15.8,9.7-24.7,9.7-13.4.2-22.5-8.2-22.5-19.8h0Zm45.8-2.2v-9.7c0-1.3-1.1-2.3-2.3-2.2-20.8,1.6-26.8,6.3-26.8,12.8,0,5.4,4.7,7.8,11,7.8s11.8-2.7,17.2-6.9c.6-.5.9-1.1.9-1.8h0Z"/>
          <path class="cls-3" d="m246.1,0c-7,0-12,4.6-12,11.3s5,11.2,12,11.2,12-4.4,12-11.2-5.1-11.3-12-11.3Zm-31.8,37.5c2.1,2.6,3.8,5.6,5.1,8.9.3.8,1.1,1.4,2,1.4h14.9c1.2,0,2.2,1,2.2,2.2v49.4c0,1.2,1,2.2,2.2,2.2h13c1.2,0,2.2-1,2.2-2.2v-63.3c0-1.2-1-2.2-2.2-2.2h-37.7c-1.9.1-2.9,2.2-1.7,3.6h0Z"/>
          <path class="cls-3" d="m498.3,0c-7,0-12,4.6-12,11.3s5,11.2,12,11.2,12-4.4,12-11.2-5-11.3-12-11.3Zm-32.1,37.4c1.8,2.5,3.1,5.5,3.9,8.8.2,1,1.1,1.6,2.1,1.6h16.3c1.2,0,2.2,1,2.2,2.2v49.4c0,1.2,1,2.2,2.2,2.2h13c1.2,0,2.2-1,2.2-2.2v-63.3c0-1.2-1-2.2-2.2-2.2h-37.9c-1.8.1-2.9,2.1-1.8,3.5h0Z"/>
          <path class="cls-3" d="m263.4,67.7c0-22.5,17.9-35.4,38.5-35.4,9.8,0,17.9,3.3,23.5,8,.9.7,1,2.1.3,3l-5.6,7.5c-.7.9-2,1.2-3,.5-4.7-3.2-9.3-4.9-14.4-4.9-12.8,0-21.7,8.4-21.7,21.3s8.7,21.2,21.1,21.2c6.6,0,12.2-2.6,16.9-5.8,1-.7,2.4-.4,3,.6l4.9,7.5c.6,1,.4,2.2-.5,2.9-7.6,5.9-17,8.8-25.8,8.8-21.1,0-37.2-12.9-37.2-35.2h0Z"/>
          <path class="cls-3" d="m329.6,67.7c0-22.5,17.9-35.4,38.5-35.4,9.8,0,17.9,3.3,23.5,8,.9.7,1,2.1.3,3l-5.6,7.5c-.7.9-2,1.2-3,.5-4.7-3.2-9.3-4.9-14.4-4.9-12.8,0-21.7,8.4-21.7,21.3s8.7,21.2,21.1,21.2c6.6,0,12.2-2.6,16.9-5.8,1-.7,2.4-.4,3,.6l4.9,7.5c.6,1,.4,2.2-.5,2.9-7.6,5.9-17,8.8-25.8,8.8-21.1,0-37.2-12.9-37.2-35.2h0Z"/>
          <path class="cls-3" d="m405.6,4.9h13c1.2,0,2.2,1,2.2,2.2v31.3c0,1.8,2.2,2.9,3.6,1.6,4.9-4.3,11-7.5,19.1-7.5,15.4,0,22.3,10.1,22.3,27.3v39.5c0,1.2-1,2.2-2.2,2.2h-13c-1.2,0-2.2-1-2.2-2.2v-37.3c0-10.2-3.2-14.8-11.6-14.8-5.9,0-10,2.7-15.4,8-.4.4-.6,1-.6,1.6v42.5c0,1.2-1,2.2-2.2,2.2h-13c-1.2,0-2.2-1-2.2-2.2V7.1c.1-1.2,1-2.2,2.2-2.2h0Z"/>
          <path class="cls-3" d="m583.6,64.4c0-18.5-11.1-32.1-31.4-32.1-18,0-34.8,13.3-34.8,35.3s16.3,35.4,37,35.4c8.8,0,17.6-2.7,24.7-6.8,1-.6,1.4-1.9.8-2.9l-3.8-6.9c-.6-1-1.8-1.4-2.9-.9-5.3,2.7-10.5,4.2-16.5,4.2-11,0-18.9-4.6-21.5-14.2-.4-1.4.7-2.7,2.1-2.7h43.7c1.1,0,2-.8,2.2-1.9.2-1.8.4-4.2.4-6.5h0Zm-30.9-18.9c8.1,0,13.4,4.3,15.1,12.6.3,1.4-.7,2.6-2.1,2.6h-28c-1.5,0-2.5-1.5-2.1-2.9,2.8-8.1,9.2-12.3,17.1-12.3h0Z"/>
          <path class="cls-3" d="m707.7,64.4c0-18.5-11.1-32.1-31.4-32.1-18,0-34.8,13.3-34.8,35.3s16.3,35.4,37,35.4c8.8,0,17.6-2.7,24.7-6.8,1-.6,1.4-1.9.8-2.9l-3.8-6.9c-.6-1-1.8-1.4-2.9-.9-5.3,2.7-10.5,4.2-16.5,4.2-11,0-18.9-4.6-21.5-14.2-.4-1.4.7-2.7,2.1-2.7h43.7c1.1,0,2-.8,2.2-1.9.1-1.8.4-4.2.4-6.5h0Zm-30.9-18.9c8.1,0,13.4,4.3,15.1,12.6.3,1.4-.7,2.6-2.1,2.6h-28c-1.5,0-2.5-1.5-2.1-2.9,2.7-8.1,9.1-12.3,17.1-12.3h0Z"/>
          <path class="cls-3" d="m117.1,99.1c.2,1.3-.8,2.5-2.1,2.5h-17.6c-16.2,0-24.7-9.8-24.7-26.5V20.7c0-1.2-1-2.2-2.2-2.2h-17.8c-1.2,0-2.2-1-2.2-2.2V7c0-1.2,1-2.2,2.2-2.2h41.7c1.6,0,2.6,1.6,2,3-3.1,7.5-10.9,27.5-10.9,45.5.1,37.3,29.1,31.9,31.6,45.8h0Z"/>
          <path class="cls-3" d="m189.8,32.5c-5.6,0-11.3,2.1-16.1,5.6-1.4,1-3.4,0-3.4-1.8V7.1c0-1.2-1-2.2-2.2-2.2h-19.7c-1.6,0-2.6,1.6-2,3,3.1,7.5,10.9,27.6,10.9,45.5,0,37.2-29,31.8-31.5,45.7-.2,1.3.8,2.5,2.1,2.5h36.8c1,0,1.9-.7,2.1-1.7l1.1-5.6h.5c5.8,5.8,12.8,9,19.2,9,15.3,0,29.6-13.3,29.6-36.5.1-20.8-10.1-34.3-27.4-34.3h0Zm-5.8,56.4c-3.8,0-8.6-1.3-12.9-4.8-.5-.4-.8-1-.8-1.7v-27.3c0-.6.2-1.1.6-1.6,4.8-4.8,9.5-6.8,14.1-6.8,10,0,14.5,7.2,14.5,20.2,0,14.9-6.9,22-15.5,22h0Z"/>
          <path class="cls-3" d="m646.1,33.5c-2.4-.7-5-1-8.4-1-10.8,0-20.6,5.3-27.3,15.4h0c-.6.8-1.4.5-1.4-.3h0l-1.1-11.7c-.1-1.1-1-2-2.2-2h-10.1c-1.2,0-2.2,1-2.2,2.2v63.3c0,1.2,1,2.2,2.2,2.2h13c1.2,0,2.2-1,2.2-2.2v-22.7c0-5.5,1.6-10.8,4.8-15.3,5.7-7.9,13.5-14.1,22.7-13.5.9.1,1.7-.5,2.1-1.3,1.7-3.7,4-6.8,6.8-9.5,1-1.2.5-3.2-1.1-3.6h0Z"/>
        </g>
      </g>
    </g>
  </g>
</svg>